#!OML:ASF F:\VICON\USERDATA\INSTALL\rory3\rory3.ASF
:FULLY-SPECIFIED
:DEGREES
186
root 1.3006396862030831 17.850130193179545 48.967074716192016 -3.873928061122384 0.10089603658866675 -0.10900886242066488
lfemur 5.210953885659793 -2.684509094073419 -21.911765582272885
ltibia 48.6272308610103
lfoot -16.719201069017164 -3.7511406267698524
ltoes -14.65939558613411
rfemur -18.439146700206116 1.1887838537012845 23.705289574372873
rtibia 22.96674221963652
rfoot 2.297223441664446 -8.847075603813533
rtoes 11.037446849740604
lowerback 10.366286113524005 -1.2406808285489757 -1.6718835616032193
upperback -0.13089681878133233 -1.935514657280282 1.8827513513401821
thorax -6.011459877448086 -0.953188988774665 3.6074999574597655
lowerneck -16.817118175554956 -3.3687618622883946 -1.5075496347371191
upperneck 21.55636722630144 -4.589401500006166 1.1638533844012127
head 9.683437662008366 -2.147666204903225 0.042348577832389905
lclavicle -2.700307951822995e-15 -2.151714706253869e-15
lhumerus -28.127032076298278 1.3275427165055547 81.3615566186282
lradius 26.48803694507134
lwrist 10.408909662775486
lhand -29.794752638972042 18.28249311609772
lfingers 7.125020000000001
lthumb -3.1187508065575047 48.497075562887154
rclavicle -2.7003079517637083e-15 -2.151714706212802e-15
rhumerus -29.94752740039879 -19.007990003978005 -76.72830870503276
rradius 26.595933508949855
rwrist 6.055135345632523
rhand -17.858391910191834 21.796479151516177
rfingers 7.125020000000001
rthumb 8.844820903218222 -8.094185960565778
187
root 1.3029494294433628 17.84072512449526 48.16827833315651 -3.981478850560384 -0.20387042071633066 0.021729753542142127
lfemur 5.907155165530719 -2.735029511467763 -22.188226656548686
ltibia 47.5286375779249
lfoot -17.16365825554133 -3.7081642898246816
ltoes -15.376083723622852
rfemur -18.505330077801236 1.3925318927597008 23.787426434664415
rtibia 22.72931918896752
rfoot 2.1329394804186013 -8.826470518276768
rtoes 11.861921571333832
lowerback 10.361018748002225 -1.2816053187952443 -1.9271614873626137
upperback -0.16094554477667156 -2.0051758030114764 1.8541438586813173
thorax -6.014689110607313 -0.9678881839166491 3.6839386295102945
lowerneck -16.767310385187024 -3.358522298277472 -1.5253735000289042
upperneck 21.623919234895258 -4.56757682639242 1.1468592419535149
head 9.71778779414937 -2.138817037242905 0.043518287559138086
lclavicle -2.7003079518256114e-15 -2.1517147062553818e-15
lhumerus -27.81899725069821 1.4931874553254825 81.41260671530098
lradius 26.436862231419855
lwrist 10.422593878182461
lhand -29.951912284826598 18.414848709923344
lfingers 7.125020000000001
lthumb -3.283982198958739 48.52967362508335
rclavicle -2.7003079517700436e-15 -2.1517147062169694e-15
rhumerus -29.546371665129612 -18.75109763733244 -76.91466997315726
rradius 26.551528246848534
rwrist 6.3218158148168655
rhand -17.883796157951206 21.749244726209238
rfingers 7.125020000000001
rthumb 8.747852227871826 -8.18502707249884
188
root 1.3119842558931958 17.84568224686003 47.42991905759243 -3.8152557504575038 -0.2479251595851675 -0.27562181760229665
lfemur 6.801947285026328 -2.8109179122613135 -22.050015656361822
ltibia 46.47782289533862
lfoot -17.127251389836424 -3.2934747368813873
ltoes -16.137073382336183
rfemur -18.304588734017468 1.5474234164855796 24.189517805624348
rtibia 22.099174092708328
rfoot 1.9119505153219833 -8.822698496236862
rtoes 11.071392700374501
lowerback 10.298311642366292 -1.3554701890216447 -1.6895436728863773
upperback -0.14764233640956118 -2.1172321360272797 1.900136134525743
thorax -5.973275885273637 -1.0337120521475163 3.728320818581872
lowerneck -16.810807712100495 -3.35689796681193 -1.5391636432444638
upperneck 21.66631270364907 -4.559078582426947 1.1194403002107935
head 9.738519643769845 -2.134626208490751 0.03563031260031771
lclavicle -2.70030795182626e-15 -2.1517147062557064e-15
lhumerus -27.756552298705778 1.4895320064092532 81.43089399420474
lradius 26.463759695348173
lwrist 10.259921314805139
lhand -29.797242577188058 18.53130965674006
lfingers 7.125020000000001
lthumb -3.076279027104072 48.87369094669466
rclavicle -2.7003079517623767e-15 -2.151714706211573e-15
rhumerus -29.277559318731182 -18.451312133141215 -76.82515509330331
rradius 26.55387838299738
rwrist 6.1552727798462135
rhand -17.83561274609408 21.871608812453488
rfingers 7.125020000000001
rthumb 8.861380447205288 -8.067213484694202
189
root 1.3055970424920518 17.83524143691371 46.755319852545824 -3.896345403299174 -0.48601660056898877 -0.25016171702718326
lfemur 7.137820559943105 -2.8036144985281877 -22.100564040157863
ltibia 45.898248084570525
lfoot -17.57924986966606 -3.146147534922684
ltoes -18.344635910754572
rfemur -18.158833507743307 1.7270092056020545 24.326937018233252
rtibia 21.92486352893527
rfoot 1.598941811896312 -8.845896885748166
rtoes 11.405260081365164
lowerback 10.315569260763649 -1.3997992096440623 -1.7908356315545948
upperback -0.15350921297158898 -2.1793082350374102 1.8870115392553677
thorax -5.952417458486246 -1.0633450942288927 3.782646372472552
lowerneck -16.859463727530198 -3.354259842926394 -1.5539262729219252
upperneck 21.638442738848664 -4.533278170252796 1.1350091974397798
head 9.737751383636878 -2.123517371461202 0.04687577752198355
lclavicle -2.7003079518309764e-15 -2.1517147062586583e-15
lhumerus -27.619130213008383 1.4567824365300468 81.4577965459376
lradius 26.462111797119547
lwrist 10.23092408949524
lhand -29.970522005277044 18.48778067472152
lfingers 7.125020000000001
lthumb -3.2797788078182615 48.630381580211875
rclavicle -2.7003079517808423e-15 -2.151714706223931e-15
rhumerus -29.088014725605753 -18.29610242925832 -76.8893921154127
rradius 26.53103673803939
rwrist 5.90501983058933
rhand -17.83448527584285 21.930452748437087
rfingers 7.125020000000001
rthumb 8.760615942581996 -8.149434261261215
